# xmcd
#
# Track frame offsets: 
#        150
#        26025
#        46582
#        67015
#        88465
#        106405
#        120917
#        139960
#        169425
#        196305
#        207975
#
# Disc length: 2978 seconds
#
# Revision: 1
# Processed by: cddbd v1.5.2PL0 Copyright (c) Steve Scherf et al.
# Submitted via: ExactAudioCopyFreeDBPlugin 1.0
#
DISCID=a10ba00b
DTITLE=Various Artist - Searching For Jimi Hendrix
DYEAR=1999
DGENRE=Rock
TTITLE0=Neville and Sheena Staples - Up From The Skies
TTITLE1=Laurie Anderson - 1983 (A Merman I Should Turn To Be)
TTITLE2=Los Lobos - Are You Experienced?
TTITLE3=Los Illegals - Little Wing
TTITLE4=Chuck D - Freedom At The Edge Of An Answer
TTITLE5=Rosanne Cash - Manic Depression
TTITLE6=Taylor Dayne - The Wind Cries Mary
TTITLE7=Mark Isham - Stone Free
TTITLE8=Cassandra Wilson - Angel
TTITLE9=Charlie Musselwhite - Hear My Train A' Comin'
TTITLE10=Five Blind Boys Of Alabama - Drifting
EXTD=
EXTT0=
EXTT1=
EXTT2=
EXTT3=
EXTT4=
EXTT5=
EXTT6=
EXTT7=
EXTT8=
EXTT9=
EXTT10=
PLAYORDER=
